HIERARCHY
ROOT Hips
{
	OFFSET	0.000000	0.000000	0.000000
	CHANNELS 6 Xposition Yposition Zposition Zrotation Xrotation Yrotation
	JOINT LeftHip
	{
		OFFSET	4.740440	-3.195970	-0.322709
		CHANNELS 3 Zrotation Xrotation Yrotation
		JOINT LeftKnee
		{
			OFFSET	-1.605680	-15.592300	1.005510
			CHANNELS 3 Zrotation Xrotation Yrotation
			JOINT LeftAnkle
			{
				OFFSET	-0.632401	-16.421000	-1.413730
				CHANNELS 3 Zrotation Xrotation Yrotation
				End Site
				{
					OFFSET	0.008423	-2.933000	-1.684880
				}
			}
		}
	}
	JOINT RightHip
	{
		OFFSET	-4.740440	-3.195970	-0.322709
		CHANNELS 3 Zrotation Xrotation Yrotation
		JOINT RightKnee
		{
			OFFSET	1.605680	-15.592300	1.005510
			CHANNELS 3 Zrotation Xrotation Yrotation
			JOINT RightAnkle
			{
				OFFSET	0.632401	-16.421000	-1.413730
				CHANNELS 3 Zrotation Xrotation Yrotation
				End Site
				{
					OFFSET	-0.008423	-2.933000	-1.684880
				}
			}
		}
	}
	JOINT Chest
	{
		OFFSET	0.000000	3.468200	0.078401
		CHANNELS 3 Zrotation Xrotation Yrotation
		JOINT LeftCollar
		{
			OFFSET	3.857650	15.070700	-0.011583
			CHANNELS 3 Zrotation Xrotation Yrotation
			JOINT LeftShoulder
			{
				OFFSET	3.979720	-1.940530	-0.165223
				CHANNELS 3 Zrotation Xrotation Yrotation
				JOINT LeftElbow
				{
					OFFSET	0.615844	-10.986600	-0.673886
					CHANNELS 3 Zrotation Xrotation Yrotation
					JOINT LeftWrist
					{
						OFFSET	0.826843	-10.854500	1.034220
						CHANNELS 3 Zrotation Xrotation Yrotation
						End Site
						{
							OFFSET	-1.679080	-8.456540	0.936217
						}
					}
				}
			}
		}
		JOINT RightCollar
		{
			OFFSET	-3.857650	15.070700	-0.011583
			CHANNELS 3 Zrotation Xrotation Yrotation
			JOINT RightShoulder
			{
				OFFSET	-3.979720	-1.940530	-0.165223
				CHANNELS 3 Zrotation Xrotation Yrotation
				JOINT RightElbow
				{
					OFFSET	-0.615845	-10.986600	-0.673886
					CHANNELS 3 Zrotation Xrotation Yrotation
					JOINT RightWrist
					{
						OFFSET	-0.826843	-10.854500	1.034220
						CHANNELS 3 Zrotation Xrotation Yrotation
						End Site
						{
							OFFSET	1.679080	-8.456540	0.936217
						}
					}
				}
			}
		}
		JOINT Neck
		{
			OFFSET	0.000000	15.101400	0.055730
			CHANNELS 3 Zrotation Xrotation Yrotation
			JOINT Head
			{
				OFFSET	0.000000	4.185120	1.488260
				CHANNELS 3 Zrotation Xrotation Yrotation
				End Site
				{
					OFFSET	0.000000	7.773420	-0.106016
				}
			}
		}
	}
}
MOTION
Frames:     7
Frame Time: 0.016667
0.456111	37.486095	-1.961682	4.836107	-7.900900	-16.639030	-6.330106	4.166322	-0.971177	-3.681699	-0.791648	10.778487	10.668416	2.973681	6.101291	-17.992373	-6.689426	-2.499676	4.737452	25.694248	-0.554021	-8.157884	-13.520639	0.336321	-9.026429	2.752484	-2.642912	-3.458268	2.188728	-1.686782	5.555810	-3.858900	3.285066	-4.982686	-1.163012	-10.644355	13.470228	1.267850	-14.215404	0.515150	-1.245878	-3.256951	-4.942831	1.162730	11.318878	3.414247	-5.465718	5.764370	-18.052177	-2.463539	8.411921	-4.622642	12.700325	-7.645364	4.542594	14.568898	-16.841040	
0.456111	37.486095	-1.961682	4.836107	-7.900900	-16.639030	-6.330106	4.166322	-0.971177	-3.681699	-0.791648	10.778487	10.668416	2.973681	6.101291	-17.992373	-6.689426	-2.499676	4.737452	25.694248	-0.554021	-8.157884	-13.520639	0.336321	-9.026429	2.752484	-2.642912	-3.458268	2.188728	-1.686782	5.555810	-3.858900	3.285066	-4.982686	-1.163012	-10.644355	13.472021	1.277499	-14.214639	0.515150	-1.245878	-3.256951	-4.942701	1.162620	11.324617	3.413592	-5.465929	5.758605	-18.052177	-2.463539	8.411921	-4.622642	12.700325	-7.645364	4.539495	14.577012	-16.832367	
0.456111	37.486095	-1.961682	4.836107	-7.900900	-16.639030	-6.330106	4.166322	-0.971177	-3.681699	-0.791648	10.778487	10.668416	2.973681	6.101291	-17.992373	-6.689426	-2.499676	4.737452	25.694248	-0.554021	-8.157884	-13.520639	0.336321	-9.026429	2.752484	-2.642912	-3.458268	2.188728	-1.686782	5.555810	-3.858900	3.285066	-4.982686	-1.163012	-10.644355	13.479674	1.318175	-14.211176	0.515150	-1.245878	-3.256951	-4.942312	1.162296	11.341677	3.411642	-5.466551	5.741467	-18.052177	-2.463539	8.411921	-4.630308	12.705836	-7.640765	4.537970	14.596661	-16.808096	
0.456111	37.486095	-1.961682	4.836107	-7.900900	-16.639030	-6.330106	4.166322	-0.971177	-3.681699	-0.791648	10.778487	10.668416	2.973681	6.101291	-17.992373	-6.689426	-2.499676	4.737452	25.694248	-0.554021	-8.157884	-13.520639	0.336321	-9.026429	2.752484	-2.642912	-3.458268	2.188728	-1.686782	5.555810	-3.858900	3.285066	-4.982686	-1.163012	-10.644355	13.482734	1.334428	-14.209793	0.515150	-1.245878	-3.256951	-4.942174	1.162181	11.347761	3.410947	-5.466774	5.735353	-18.052177	-2.463539	8.411921	-4.634912	12.709144	-7.638006	4.539052	14.601792	-16.800169	
0.456111	37.486095	-1.961682	4.836107	-7.900900	-16.639030	-6.330106	4.166322	-0.971177	-3.681699	-0.791648	10.778487	10.668416	2.973681	6.101291	-17.992373	-6.689426	-2.499676	4.737452	25.694248	-0.554021	-8.157884	-13.520639	0.336321	-9.026429	2.752484	-2.642912	-3.458268	2.188728	-1.686782	5.555810	-3.858900	3.285066	-4.982686	-1.163012	-10.644355	13.485893	1.351201	-14.208365	0.515150	-1.245878	-3.256951	-4.941730	1.161832	11.366574	3.408779	-5.467463	5.716455	-18.052177	-2.463539	8.411921	-4.651446	12.721020	-7.628095	4.530001	14.601011	-16.774973	
0.456111	37.486095	-1.961682	4.836107	-7.900900	-16.639030	-6.330106	4.166322	-0.971177	-3.681699	-0.791648	10.778487	10.668416	2.973681	6.101291	-17.992373	-6.689426	-2.499676	4.737452	25.694248	-0.554021	-8.161947	-13.519879	0.338100	-9.026429	2.752484	-2.642912	-3.458268	2.188728	-1.686782	5.555810	-3.858900	3.285066	-4.982686	-1.163012	-10.644355	13.492067	1.383946	-14.205573	0.515150	-1.245878	-3.256951	-4.941577	1.161716	11.372926	3.408045	-5.467698	5.710072	-18.052177	-2.463539	8.411921	-4.670889	12.734978	-7.616445	4.543236	14.591890	-16.771927	
0.456237	37.486267	-1.964658	4.836107	-7.900900	-16.639030	-6.330106	4.166322	-0.971177	-3.678620	-0.801472	10.781056	10.667456	2.983261	6.096907	-17.992373	-6.689426	-2.499676	4.737452	25.694248	-0.554021	-8.162595	-13.519768	0.338401	-9.026429	2.752484	-2.642912	-3.458268	2.188728	-1.686782	5.555810	-3.858900	3.285066	-4.982686	-1.163012	-10.644355	13.498103	1.416057	-14.202857	0.515150	-1.245878	-3.256951	-4.941131	1.161361	11.392100	3.405841	-5.468403	5.690810	-18.052177	-2.463539	8.411921	-4.678810	12.740637	-7.611712	4.527289	14.594630	-16.747890	
